mtllib B5.mtl
o mesh_0
usemtl lambert2
v 2.2809343338012695 0.23005938529968262 218.12952568614037
v 27.685930252075195 0.23005938529968262 218.12952568614037
v 27.685930252075195 65.19360613822937 218.12952568614037
v 2.2809343338012695 0.23005938529968262 218.12952568614037
v 27.685930252075195 65.19360613822937 218.12952568614037
v 2.2809343338012695 65.19360613822937 218.12952568614037
v 2.2809343338012695 65.19360613822937 218.12952568614037
v 27.685930252075195 65.19360613822937 218.12952568614037
v 27.685930252075195 65.19360613822937 182.6662479043007
v 2.2809343338012695 65.19360613822937 218.12952568614037
v 27.685930252075195 65.19360613822937 182.6662479043007
v 2.2809343338012695 65.19360613822937 182.6662479043007
v 2.2809343338012695 65.19360613822937 182.6662479043007
v 27.685930252075195 65.19360613822937 182.6662479043007
v 27.685930252075195 0.23005938529968262 182.6662479043007
v 2.2809343338012695 65.19360613822937 182.6662479043007
v 27.685930252075195 0.23005938529968262 182.6662479043007
v 2.2809343338012695 0.23005938529968262 182.6662479043007
v 2.2809343338012695 0.23005938529968262 182.6662479043007
v 27.685930252075195 0.23005938529968262 182.6662479043007
v 27.685930252075195 0.23005938529968262 218.12952568614037
v 2.2809343338012695 0.23005938529968262 182.6662479043007
v 27.685930252075195 0.23005938529968262 218.12952568614037
v 2.2809343338012695 0.23005938529968262 218.12952568614037
v 27.685930252075195 0.23005938529968262 218.12952568614037
v 27.685930252075195 0.23005938529968262 182.6662479043007
v 27.685930252075195 65.19360613822937 182.6662479043007
v 27.685930252075195 0.23005938529968262 218.12952568614037
v 27.685930252075195 65.19360613822937 182.6662479043007
v 27.685930252075195 65.19360613822937 218.12952568614037
v 2.2809343338012695 0.23005938529968262 182.6662479043007
v 2.2809343338012695 0.23005938529968262 218.12952568614037
v 2.2809343338012695 65.19360613822937 218.12952568614037
v 2.2809343338012695 0.23005938529968262 182.6662479043007
v 2.2809343338012695 65.19360613822937 218.12952568614037
v 2.2809343338012695 65.19360613822937 182.6662479043007
vt -1.0047481060028076 1.6250972747802734
vt 1.8884525299072266 1.6250972747802734
vt 1.8884525299072266 -0.6250972747802734
vt -1.0047481060028076 1.6250972747802734
vt 1.8884525299072266 -0.6250972747802734
vt -1.0047481060028076 -0.6250972747802734
vt 1.0298428535461426 0.9980122717097402
vt 1.2541778087615967 0.9980122717097402
vt 1.2541778087615967 0.5030759871006012
vt 1.0298428535461426 0.9980122717097402
vt 1.2541778087615967 0.5030759871006012
vt 1.0298428535461426 0.5030759871006012
vt -1.0047481060028076 1.6250972747802734
vt 1.8884525299072266 1.6250972747802734
vt 1.8884525299072266 -0.6250972747802734
vt -1.0047481060028076 1.6250972747802734
vt 1.8884525299072266 -0.6250972747802734
vt -1.0047481060028076 -0.6250972747802734
vt 1.0298428535461426 0.9980122745037079
vt 1.2541778087615967 0.9980122745037079
vt 1.2541778087615967 0.5030759871006012
vt 1.0298428535461426 0.9980122745037079
vt 1.2541778087615967 0.5030759871006012
vt 1.0298428535461426 0.5030759871006012
vt -1.0047481060028076 1.6250972747802734
vt 1.8884525299072266 1.6250972747802734
vt 1.8884525299072266 -0.6250972747802734
vt -1.0047481060028076 1.6250972747802734
vt 1.8884525299072266 -0.6250972747802734
vt -1.0047481060028076 -0.6250972747802734
vt -1.0047481060028076 1.6250972747802734
vt 1.8884525299072266 1.6250972747802734
vt 1.8884525299072266 -0.6250972747802734
vt -1.0047481060028076 1.6250972747802734
vt 1.8884525299072266 -0.6250972747802734
vt -1.0047481060028076 -0.6250972747802734
vn 0 0 1
vn 0 0 1
vn 0 0 1
vn 0 0 1
vn 0 0 1
vn 0 0 1
vn 0 1 0
vn 0 1 0
vn 0 1 0
vn 0 1 0
vn 0 1 0
vn 0 1 0
vn 0 0 -1
vn 0 0 -1
vn 0 0 -1
vn 0 0 -1
vn 0 0 -1
vn 0 0 -1
vn 0 -1 0
vn 0 -1 0
vn 0 -1 0
vn 0 -1 0
vn 0 -1 0
vn 0 -1 0
vn 1 0 0
vn 1 0 0
vn 1 0 0
vn 1 0 0
vn 1 0 0
vn 1 0 0
vn -1 0 0
vn -1 0 0
vn -1 0 0
vn -1 0 0
vn -1 0 0
vn -1 0 0
f 1/1/1 2/2/2 3/3/3
f 4/4/4 5/5/5 6/6/6
o mesh_0_1
usemtl lambert3
v 2.2809343338012695 0.23005938529968262 218.12952568614037
v 27.685930252075195 0.23005938529968262 218.12952568614037
v 27.685930252075195 65.19360613822937 218.12952568614037
v 2.2809343338012695 0.23005938529968262 218.12952568614037
v 27.685930252075195 65.19360613822937 218.12952568614037
v 2.2809343338012695 65.19360613822937 218.12952568614037
v 2.2809343338012695 65.19360613822937 218.12952568614037
v 27.685930252075195 65.19360613822937 218.12952568614037
v 27.685930252075195 65.19360613822937 182.6662479043007
v 2.2809343338012695 65.19360613822937 218.12952568614037
v 27.685930252075195 65.19360613822937 182.6662479043007
v 2.2809343338012695 65.19360613822937 182.6662479043007
v 2.2809343338012695 65.19360613822937 182.6662479043007
v 27.685930252075195 65.19360613822937 182.6662479043007
v 27.685930252075195 0.23005938529968262 182.6662479043007
v 2.2809343338012695 65.19360613822937 182.6662479043007
v 27.685930252075195 0.23005938529968262 182.6662479043007
v 2.2809343338012695 0.23005938529968262 182.6662479043007
v 2.2809343338012695 0.23005938529968262 182.6662479043007
v 27.685930252075195 0.23005938529968262 182.6662479043007
v 27.685930252075195 0.23005938529968262 218.12952568614037
v 2.2809343338012695 0.23005938529968262 182.6662479043007
v 27.685930252075195 0.23005938529968262 218.12952568614037
v 2.2809343338012695 0.23005938529968262 218.12952568614037
v 27.685930252075195 0.23005938529968262 218.12952568614037
v 27.685930252075195 0.23005938529968262 182.6662479043007
v 27.685930252075195 65.19360613822937 182.6662479043007
v 27.685930252075195 0.23005938529968262 218.12952568614037
v 27.685930252075195 65.19360613822937 182.6662479043007
v 27.685930252075195 65.19360613822937 218.12952568614037
v 2.2809343338012695 0.23005938529968262 182.6662479043007
v 2.2809343338012695 0.23005938529968262 218.12952568614037
v 2.2809343338012695 65.19360613822937 218.12952568614037
v 2.2809343338012695 0.23005938529968262 182.6662479043007
v 2.2809343338012695 65.19360613822937 218.12952568614037
v 2.2809343338012695 65.19360613822937 182.6662479043007
vt -1.0047481060028076 1.6250972747802734
vt 1.8884525299072266 1.6250972747802734
vt 1.8884525299072266 -0.6250972747802734
vt -1.0047481060028076 1.6250972747802734
vt 1.8884525299072266 -0.6250972747802734
vt -1.0047481060028076 -0.6250972747802734
vt 1.0298428535461426 0.9980122717097402
vt 1.2541778087615967 0.9980122717097402
vt 1.2541778087615967 0.5030759871006012
vt 1.0298428535461426 0.9980122717097402
vt 1.2541778087615967 0.5030759871006012
vt 1.0298428535461426 0.5030759871006012
vt -1.0047481060028076 1.6250972747802734
vt 1.8884525299072266 1.6250972747802734
vt 1.8884525299072266 -0.6250972747802734
vt -1.0047481060028076 1.6250972747802734
vt 1.8884525299072266 -0.6250972747802734
vt -1.0047481060028076 -0.6250972747802734
vt 1.0298428535461426 0.9980122745037079
vt 1.2541778087615967 0.9980122745037079
vt 1.2541778087615967 0.5030759871006012
vt 1.0298428535461426 0.9980122745037079
vt 1.2541778087615967 0.5030759871006012
vt 1.0298428535461426 0.5030759871006012
vt -1.0047481060028076 1.6250972747802734
vt 1.8884525299072266 1.6250972747802734
vt 1.8884525299072266 -0.6250972747802734
vt -1.0047481060028076 1.6250972747802734
vt 1.8884525299072266 -0.6250972747802734
vt -1.0047481060028076 -0.6250972747802734
vt -1.0047481060028076 1.6250972747802734
vt 1.8884525299072266 1.6250972747802734
vt 1.8884525299072266 -0.6250972747802734
vt -1.0047481060028076 1.6250972747802734
vt 1.8884525299072266 -0.6250972747802734
vt -1.0047481060028076 -0.6250972747802734
vn 0 0 1
vn 0 0 1
vn 0 0 1
vn 0 0 1
vn 0 0 1
vn 0 0 1
vn 0 1 0
vn 0 1 0
vn 0 1 0
vn 0 1 0
vn 0 1 0
vn 0 1 0
vn 0 0 -1
vn 0 0 -1
vn 0 0 -1
vn 0 0 -1
vn 0 0 -1
vn 0 0 -1
vn 0 -1 0
vn 0 -1 0
vn 0 -1 0
vn 0 -1 0
vn 0 -1 0
vn 0 -1 0
vn 1 0 0
vn 1 0 0
vn 1 0 0
vn 1 0 0
vn 1 0 0
vn 1 0 0
vn -1 0 0
vn -1 0 0
vn -1 0 0
vn -1 0 0
vn -1 0 0
vn -1 0 0
f 43/43/43 44/44/44 45/45/45
f 46/46/46 47/47/47 48/48/48
o mesh_0_2
usemtl lambert2
v 2.2809343338012695 0.23005938529968262 218.12952568614037
v 27.685930252075195 0.23005938529968262 218.12952568614037
v 27.685930252075195 65.19360613822937 218.12952568614037
v 2.2809343338012695 0.23005938529968262 218.12952568614037
v 27.685930252075195 65.19360613822937 218.12952568614037
v 2.2809343338012695 65.19360613822937 218.12952568614037
v 2.2809343338012695 65.19360613822937 218.12952568614037
v 27.685930252075195 65.19360613822937 218.12952568614037
v 27.685930252075195 65.19360613822937 182.6662479043007
v 2.2809343338012695 65.19360613822937 218.12952568614037
v 27.685930252075195 65.19360613822937 182.6662479043007
v 2.2809343338012695 65.19360613822937 182.6662479043007
v 2.2809343338012695 65.19360613822937 182.6662479043007
v 27.685930252075195 65.19360613822937 182.6662479043007
v 27.685930252075195 0.23005938529968262 182.6662479043007
v 2.2809343338012695 65.19360613822937 182.6662479043007
v 27.685930252075195 0.23005938529968262 182.6662479043007
v 2.2809343338012695 0.23005938529968262 182.6662479043007
v 2.2809343338012695 0.23005938529968262 182.6662479043007
v 27.685930252075195 0.23005938529968262 182.6662479043007
v 27.685930252075195 0.23005938529968262 218.12952568614037
v 2.2809343338012695 0.23005938529968262 182.6662479043007
v 27.685930252075195 0.23005938529968262 218.12952568614037
v 2.2809343338012695 0.23005938529968262 218.12952568614037
v 27.685930252075195 0.23005938529968262 218.12952568614037
v 27.685930252075195 0.23005938529968262 182.6662479043007
v 27.685930252075195 65.19360613822937 182.6662479043007
v 27.685930252075195 0.23005938529968262 218.12952568614037
v 27.685930252075195 65.19360613822937 182.6662479043007
v 27.685930252075195 65.19360613822937 218.12952568614037
v 2.2809343338012695 0.23005938529968262 182.6662479043007
v 2.2809343338012695 0.23005938529968262 218.12952568614037
v 2.2809343338012695 65.19360613822937 218.12952568614037
v 2.2809343338012695 0.23005938529968262 182.6662479043007
v 2.2809343338012695 65.19360613822937 218.12952568614037
v 2.2809343338012695 65.19360613822937 182.6662479043007
vt -1.0047481060028076 1.6250972747802734
vt 1.8884525299072266 1.6250972747802734
vt 1.8884525299072266 -0.6250972747802734
vt -1.0047481060028076 1.6250972747802734
vt 1.8884525299072266 -0.6250972747802734
vt -1.0047481060028076 -0.6250972747802734
vt 1.0298428535461426 0.9980122717097402
vt 1.2541778087615967 0.9980122717097402
vt 1.2541778087615967 0.5030759871006012
vt 1.0298428535461426 0.9980122717097402
vt 1.2541778087615967 0.5030759871006012
vt 1.0298428535461426 0.5030759871006012
vt -1.0047481060028076 1.6250972747802734
vt 1.8884525299072266 1.6250972747802734
vt 1.8884525299072266 -0.6250972747802734
vt -1.0047481060028076 1.6250972747802734
vt 1.8884525299072266 -0.6250972747802734
vt -1.0047481060028076 -0.6250972747802734
vt 1.0298428535461426 0.9980122745037079
vt 1.2541778087615967 0.9980122745037079
vt 1.2541778087615967 0.5030759871006012
vt 1.0298428535461426 0.9980122745037079
vt 1.2541778087615967 0.5030759871006012
vt 1.0298428535461426 0.5030759871006012
vt -1.0047481060028076 1.6250972747802734
vt 1.8884525299072266 1.6250972747802734
vt 1.8884525299072266 -0.6250972747802734
vt -1.0047481060028076 1.6250972747802734
vt 1.8884525299072266 -0.6250972747802734
vt -1.0047481060028076 -0.6250972747802734
vt -1.0047481060028076 1.6250972747802734
vt 1.8884525299072266 1.6250972747802734
vt 1.8884525299072266 -0.6250972747802734
vt -1.0047481060028076 1.6250972747802734
vt 1.8884525299072266 -0.6250972747802734
vt -1.0047481060028076 -0.6250972747802734
vn 0 0 1
vn 0 0 1
vn 0 0 1
vn 0 0 1
vn 0 0 1
vn 0 0 1
vn 0 1 0
vn 0 1 0
vn 0 1 0
vn 0 1 0
vn 0 1 0
vn 0 1 0
vn 0 0 -1
vn 0 0 -1
vn 0 0 -1
vn 0 0 -1
vn 0 0 -1
vn 0 0 -1
vn 0 -1 0
vn 0 -1 0
vn 0 -1 0
vn 0 -1 0
vn 0 -1 0
vn 0 -1 0
vn 1 0 0
vn 1 0 0
vn 1 0 0
vn 1 0 0
vn 1 0 0
vn 1 0 0
vn -1 0 0
vn -1 0 0
vn -1 0 0
vn -1 0 0
vn -1 0 0
vn -1 0 0
f 85/85/85 86/86/86 87/87/87
f 88/88/88 89/89/89 90/90/90
o mesh_0_3
usemtl lambert3
v 2.2809343338012695 0.23005938529968262 218.12952568614037
v 27.685930252075195 0.23005938529968262 218.12952568614037
v 27.685930252075195 65.19360613822937 218.12952568614037
v 2.2809343338012695 0.23005938529968262 218.12952568614037
v 27.685930252075195 65.19360613822937 218.12952568614037
v 2.2809343338012695 65.19360613822937 218.12952568614037
v 2.2809343338012695 65.19360613822937 218.12952568614037
v 27.685930252075195 65.19360613822937 218.12952568614037
v 27.685930252075195 65.19360613822937 182.6662479043007
v 2.2809343338012695 65.19360613822937 218.12952568614037
v 27.685930252075195 65.19360613822937 182.6662479043007
v 2.2809343338012695 65.19360613822937 182.6662479043007
v 2.2809343338012695 65.19360613822937 182.6662479043007
v 27.685930252075195 65.19360613822937 182.6662479043007
v 27.685930252075195 0.23005938529968262 182.6662479043007
v 2.2809343338012695 65.19360613822937 182.6662479043007
v 27.685930252075195 0.23005938529968262 182.6662479043007
v 2.2809343338012695 0.23005938529968262 182.6662479043007
v 2.2809343338012695 0.23005938529968262 182.6662479043007
v 27.685930252075195 0.23005938529968262 182.6662479043007
v 27.685930252075195 0.23005938529968262 218.12952568614037
v 2.2809343338012695 0.23005938529968262 182.6662479043007
v 27.685930252075195 0.23005938529968262 218.12952568614037
v 2.2809343338012695 0.23005938529968262 218.12952568614037
v 27.685930252075195 0.23005938529968262 218.12952568614037
v 27.685930252075195 0.23005938529968262 182.6662479043007
v 27.685930252075195 65.19360613822937 182.6662479043007
v 27.685930252075195 0.23005938529968262 218.12952568614037
v 27.685930252075195 65.19360613822937 182.6662479043007
v 27.685930252075195 65.19360613822937 218.12952568614037
v 2.2809343338012695 0.23005938529968262 182.6662479043007
v 2.2809343338012695 0.23005938529968262 218.12952568614037
v 2.2809343338012695 65.19360613822937 218.12952568614037
v 2.2809343338012695 0.23005938529968262 182.6662479043007
v 2.2809343338012695 65.19360613822937 218.12952568614037
v 2.2809343338012695 65.19360613822937 182.6662479043007
vt -1.0047481060028076 1.6250972747802734
vt 1.8884525299072266 1.6250972747802734
vt 1.8884525299072266 -0.6250972747802734
vt -1.0047481060028076 1.6250972747802734
vt 1.8884525299072266 -0.6250972747802734
vt -1.0047481060028076 -0.6250972747802734
vt 1.0298428535461426 0.9980122717097402
vt 1.2541778087615967 0.9980122717097402
vt 1.2541778087615967 0.5030759871006012
vt 1.0298428535461426 0.9980122717097402
vt 1.2541778087615967 0.5030759871006012
vt 1.0298428535461426 0.5030759871006012
vt -1.0047481060028076 1.6250972747802734
vt 1.8884525299072266 1.6250972747802734
vt 1.8884525299072266 -0.6250972747802734
vt -1.0047481060028076 1.6250972747802734
vt 1.8884525299072266 -0.6250972747802734
vt -1.0047481060028076 -0.6250972747802734
vt 1.0298428535461426 0.9980122745037079
vt 1.2541778087615967 0.9980122745037079
vt 1.2541778087615967 0.5030759871006012
vt 1.0298428535461426 0.9980122745037079
vt 1.2541778087615967 0.5030759871006012
vt 1.0298428535461426 0.5030759871006012
vt -1.0047481060028076 1.6250972747802734
vt 1.8884525299072266 1.6250972747802734
vt 1.8884525299072266 -0.6250972747802734
vt -1.0047481060028076 1.6250972747802734
vt 1.8884525299072266 -0.6250972747802734
vt -1.0047481060028076 -0.6250972747802734
vt -1.0047481060028076 1.6250972747802734
vt 1.8884525299072266 1.6250972747802734
vt 1.8884525299072266 -0.6250972747802734
vt -1.0047481060028076 1.6250972747802734
vt 1.8884525299072266 -0.6250972747802734
vt -1.0047481060028076 -0.6250972747802734
vn 0 0 1
vn 0 0 1
vn 0 0 1
vn 0 0 1
vn 0 0 1
vn 0 0 1
vn 0 1 0
vn 0 1 0
vn 0 1 0
vn 0 1 0
vn 0 1 0
vn 0 1 0
vn 0 0 -1
vn 0 0 -1
vn 0 0 -1
vn 0 0 -1
vn 0 0 -1
vn 0 0 -1
vn 0 -1 0
vn 0 -1 0
vn 0 -1 0
vn 0 -1 0
vn 0 -1 0
vn 0 -1 0
vn 1 0 0
vn 1 0 0
vn 1 0 0
vn 1 0 0
vn 1 0 0
vn 1 0 0
vn -1 0 0
vn -1 0 0
vn -1 0 0
vn -1 0 0
vn -1 0 0
vn -1 0 0
f 127/127/127 128/128/128 129/129/129
f 130/130/130 131/131/131 132/132/132
o mesh_0_4
usemtl lambert2
v 2.2809343338012695 0.23005938529968262 218.12952568614037
v 27.685930252075195 0.23005938529968262 218.12952568614037
v 27.685930252075195 65.19360613822937 218.12952568614037
v 2.2809343338012695 0.23005938529968262 218.12952568614037
v 27.685930252075195 65.19360613822937 218.12952568614037
v 2.2809343338012695 65.19360613822937 218.12952568614037
v 2.2809343338012695 65.19360613822937 218.12952568614037
v 27.685930252075195 65.19360613822937 218.12952568614037
v 27.685930252075195 65.19360613822937 182.6662479043007
v 2.2809343338012695 65.19360613822937 218.12952568614037
v 27.685930252075195 65.19360613822937 182.6662479043007
v 2.2809343338012695 65.19360613822937 182.6662479043007
v 2.2809343338012695 65.19360613822937 182.6662479043007
v 27.685930252075195 65.19360613822937 182.6662479043007
v 27.685930252075195 0.23005938529968262 182.6662479043007
v 2.2809343338012695 65.19360613822937 182.6662479043007
v 27.685930252075195 0.23005938529968262 182.6662479043007
v 2.2809343338012695 0.23005938529968262 182.6662479043007
v 2.2809343338012695 0.23005938529968262 182.6662479043007
v 27.685930252075195 0.23005938529968262 182.6662479043007
v 27.685930252075195 0.23005938529968262 218.12952568614037
v 2.2809343338012695 0.23005938529968262 182.6662479043007
v 27.685930252075195 0.23005938529968262 218.12952568614037
v 2.2809343338012695 0.23005938529968262 218.12952568614037
v 27.685930252075195 0.23005938529968262 218.12952568614037
v 27.685930252075195 0.23005938529968262 182.6662479043007
v 27.685930252075195 65.19360613822937 182.6662479043007
v 27.685930252075195 0.23005938529968262 218.12952568614037
v 27.685930252075195 65.19360613822937 182.6662479043007
v 27.685930252075195 65.19360613822937 218.12952568614037
v 2.2809343338012695 0.23005938529968262 182.6662479043007
v 2.2809343338012695 0.23005938529968262 218.12952568614037
v 2.2809343338012695 65.19360613822937 218.12952568614037
v 2.2809343338012695 0.23005938529968262 182.6662479043007
v 2.2809343338012695 65.19360613822937 218.12952568614037
v 2.2809343338012695 65.19360613822937 182.6662479043007
vt -1.0047481060028076 1.6250972747802734
vt 1.8884525299072266 1.6250972747802734
vt 1.8884525299072266 -0.6250972747802734
vt -1.0047481060028076 1.6250972747802734
vt 1.8884525299072266 -0.6250972747802734
vt -1.0047481060028076 -0.6250972747802734
vt 1.0298428535461426 0.9980122717097402
vt 1.2541778087615967 0.9980122717097402
vt 1.2541778087615967 0.5030759871006012
vt 1.0298428535461426 0.9980122717097402
vt 1.2541778087615967 0.5030759871006012
vt 1.0298428535461426 0.5030759871006012
vt -1.0047481060028076 1.6250972747802734
vt 1.8884525299072266 1.6250972747802734
vt 1.8884525299072266 -0.6250972747802734
vt -1.0047481060028076 1.6250972747802734
vt 1.8884525299072266 -0.6250972747802734
vt -1.0047481060028076 -0.6250972747802734
vt 1.0298428535461426 0.9980122745037079
vt 1.2541778087615967 0.9980122745037079
vt 1.2541778087615967 0.5030759871006012
vt 1.0298428535461426 0.9980122745037079
vt 1.2541778087615967 0.5030759871006012
vt 1.0298428535461426 0.5030759871006012
vt -1.0047481060028076 1.6250972747802734
vt 1.8884525299072266 1.6250972747802734
vt 1.8884525299072266 -0.6250972747802734
vt -1.0047481060028076 1.6250972747802734
vt 1.8884525299072266 -0.6250972747802734
vt -1.0047481060028076 -0.6250972747802734
vt -1.0047481060028076 1.6250972747802734
vt 1.8884525299072266 1.6250972747802734
vt 1.8884525299072266 -0.6250972747802734
vt -1.0047481060028076 1.6250972747802734
vt 1.8884525299072266 -0.6250972747802734
vt -1.0047481060028076 -0.6250972747802734
vn 0 0 1
vn 0 0 1
vn 0 0 1
vn 0 0 1
vn 0 0 1
vn 0 0 1
vn 0 1 0
vn 0 1 0
vn 0 1 0
vn 0 1 0
vn 0 1 0
vn 0 1 0
vn 0 0 -1
vn 0 0 -1
vn 0 0 -1
vn 0 0 -1
vn 0 0 -1
vn 0 0 -1
vn 0 -1 0
vn 0 -1 0
vn 0 -1 0
vn 0 -1 0
vn 0 -1 0
vn 0 -1 0
vn 1 0 0
vn 1 0 0
vn 1 0 0
vn 1 0 0
vn 1 0 0
vn 1 0 0
vn -1 0 0
vn -1 0 0
vn -1 0 0
vn -1 0 0
vn -1 0 0
vn -1 0 0
f 169/169/169 170/170/170 171/171/171
f 172/172/172 173/173/173 174/174/174
f 175/175/175 176/176/176 177/177/177
f 178/178/178 179/179/179 180/180/180
